<svg id="visual" viewBox="0 0 960 540" width="960" height="540" xmlns="http://www.w3.org/2000/svg" xmlns:xlink="http://www.w3.org/1999/xlink" version="1.1"><rect x="0" y="0" width="960" height="540" fill="#1b1b1b"></rect><path d="M0 402L17.8 387.7C35.7 373.3 71.3 344.7 106.8 326.2C142.3 307.7 177.7 299.3 213.2 302C248.7 304.7 284.3 318.3 320 336.7C355.7 355 391.3 378 426.8 375.3C462.3 372.7 497.7 344.3 533.2 321.8C568.7 299.3 604.3 282.7 640 291.5C675.7 300.3 711.3 334.7 746.8 346C782.3 357.3 817.7 345.7 853.2 348.5C888.7 351.3 924.3 368.7 942.2 377.3L960 386L960 541L942.2 541C924.3 541 888.7 541 853.2 541C817.7 541 782.3 541 746.8 541C711.3 541 675.7 541 640 541C604.3 541 568.7 541 533.2 541C497.7 541 462.3 541 426.8 541C391.3 541 355.7 541 320 541C284.3 541 248.7 541 213.2 541C177.7 541 142.3 541 106.8 541C71.3 541 35.7 541 17.8 541L0 541Z" fill="#faf869" stroke-linecap="round" stroke-linejoin="miter"></path></svg>